<?xml version="1.0" encoding="utf-8"?>
<!-- Generator: Adobe Illustrator 23.0.1, SVG Export Plug-In . SVG Version: 6.00 Build 0)  -->
<svg version="1.1" id="Layer_1" xmlns="http://www.w3.org/2000/svg" xmlns:xlink="http://www.w3.org/1999/xlink" x="0px" y="0px"
	 viewBox="0 0 483.4 133.02" style="enable-background:new 0 0 483.4 133.02;" xml:space="preserve">
<style type="text/css">
	.st0{fill:#FFFFFF;}
</style>
<g>
	<path class="st0" d="M110.13,45.65c0-3.27-2.09-4.97-4.97-4.97c-3.4,0-8.24,4.19-13.6,9.68c0.25-0.64,0.49-1.27,0.72-1.88
		c0.09-0.18,0.16-0.37,0.21-0.57c0.74-2.01,1.29-3.69,1.29-4.35c0-1.44-1.18-2.35-2.88-2.35c-1.51,0-2.41,1.04-3.18,2.89
		c-0.12,0-0.22-0.01-0.34-0.01c-2.75,0-8.37,0.92-15.96,2.35c-2.49-3.4-5.89-5.62-7.98-6.41c11.9-6.54,20.4-17.4,20.4-27.73
		c0-5.36-4.05-10.33-15.83-10.33C37.41,1.96,0,26.55,0,46.04c0,3.4,1.44,5.23,3.92,5.23c2.35,0,4.84-1.96,4.84-4.19
		c0-1.31-1.05-2.35-1.05-3.53c0-12.69,35.45-36.1,58.34-36.1c5.49,0,10.2,1.57,10.2,6.41c0,11.51-15.04,21.32-24.33,24.07
		c-5.23,1.57-7.06,1.7-7.06,5.1c0,1.44,0.65,2.35,2.35,2.35c0.92,0,2.35-0.65,6.8-0.65c4.19,0,7.46,1.31,9.68,3.14
		c-8.11,1.96-18.18,4.97-30.08,11.12c1.7-4.97,4.71-11.77,8.76-18.97c4.84-8.5,10.46-14.39,13.86-17.66
		c2.09-2.09,3.92-4.06,3.92-5.49c0-1.83-1.31-3.53-3.53-3.53c-2.35,0-10.33,6.15-20.67,24.98c-5.62,10.07-8.63,18.57-10.2,24.59
		C12.29,71.42,0.26,82.4,0.26,92.61c0,7.72,5.36,13.34,15.17,13.34c26.29,0,58.86-27.99,58.86-49.83c0-1.44-0.26-3.14-0.52-4.58
		c4.86-0.81,9.24-1.23,11.88-1.37c-0.89,2.45-2.13,5.56-3.51,8.83c-2.09,4.84-3.92,10.2-3.92,11.64c0,1.83,1.83,3.27,3.4,3.27
		c0.78,0,1.96-2.49,3.01-5.1c1.18-2.88,2.62-5.75,3.79-7.46c4.32-6.28,12.69-14.26,14.39-14.26c0.65,0,0.78,0.26,0.78,0.65
		c0,0.65-0.92,2.35-0.92,3.53c0,1.57,1.18,2.62,2.62,2.62C109.08,53.89,110.13,50.1,110.13,45.65z M16.35,100.19
		c-4.84,0-9.94-2.35-9.94-7.46c0-6.41,7.32-14.65,17.79-21.71c-0.26,1.18-0.26,2.75-0.26,3.01c0,2.88,2.62,4.45,4.58,4.45
		c2.22,0,2.48-2.88,2.48-4.32c0-2.35,0.13-4.71,0.52-7.33c15.3-9.02,26.55-11.9,35.05-13.73c0.26,1.05,0.26,2.35,0.26,3.4
		C66.84,75.6,36.89,100.19,16.35,100.19z"/>
	<path class="st0" d="M219.59,63.18c8.63-1.96,19.62-9.68,19.62-16.48c0-2.88-3.01-4.97-5.76-4.97c-4.94,0-11.05,3.05-15.93,9.17
		c-0.62,0.67-1.25,1.45-1.86,2.2c-4.45,6.02-12.03,15.17-17.66,15.17c-3.79,0-6.28-3.53-6.41-4.97c4.84-2.35,15.83-8.5,15.83-16.22
		c0-3.14-2.62-5.1-4.84-5.1c-4.32,0-11.64,3.92-21.71,14.65c0.65-2.09,2.62-6.28,3.14-6.8c7.59-6.28,15.43-13.34,21.32-21.45
		c8.37-11.9,10.2-19.62,10.2-23.28c0-2.48-2.49-5.1-5.1-5.1c-6.8,0-14.65,7.72-21.71,21.45c-2.93,5.73-7.16,15.81-10.78,25.39
		c-0.83,0.39-1.82,0.97-2.55,1.3c-2.35,1.05-4.58,1.96-7.85,1.96c-1.31,0-1.7-3.01-1.7-3.92c0-2.22-2.35-4.71-7.46-4.71
		c-3.81,0-8.04,2.18-11.61,5.65c-0.69,0.35-1.42,0.76-1.99,1.02c-2.35,1.05-4.58,1.96-7.85,1.96c-1.31,0-1.7-3.01-1.7-3.92
		c0-2.22-2.35-4.71-7.46-4.71c-8.76,0-19.75,11.51-19.75,23.81c0,5.89,3.79,8.89,7.72,8.89c9.29,0,15.17-10.07,18.18-17.79
		c0.92,0,3.84-0.13,6.95-0.89c-1.4,3.05-2.24,6.39-2.24,9.78c0,5.89,3.79,8.89,7.72,8.89c9.29,0,15.17-10.07,18.18-17.79
		c1.29,0,6.53-0.26,10.7-2.15c-2.66,7.5-4.55,13.75-4.55,15.89c0,3.53,2.48,4.32,3.92,4.32c1.57,0,3.53-1.83,3.53-3.79
		c0-2.75,3.01-6.54,7.32-11.38c6.8-7.46,12.43-11.12,13.86-11.12c0.65,0,1.44,0.39,1.44,1.44c0,3.66-9.16,9.29-12.43,10.46
		c-2.09,0.79-2.49,1.57-2.49,2.75c0,2.88,3.27,10.86,10.59,10.86c5.13,0,10.07-3.32,14.45-7.55c0.56,5.11,5.06,8.2,9.09,8.2
		c4.19,0,7.46-1.31,13.08-5.62c3.01-2.35,3.79-3.53,3.79-4.97c0-1.31-0.92-1.96-2.09-1.96s-3.14,1.57-4.97,3.01
		c-2.48,1.96-4.97,4.32-8.76,4.32c-2.49,0-3.66-2.09-3.66-3.66C217.37,64.48,217.89,63.57,219.59,63.18z M194.35,24.07
		c4.97-9.94,11.64-18.44,14.39-18.44c0.92,0,1.31,0.52,1.31,1.44c0,1.96-3.01,8.76-9.29,17.92c-4.58,6.67-10.33,12.16-13.34,15.04
		C187.55,39.63,189.65,33.48,194.35,24.07z M117.19,68.93c-1.31,0-2.75-1.44-2.75-3.4c0-7.98,7.19-17,12.43-17.27
		c-0.26,0.78-0.52,1.83-0.52,2.62c0,1.44,1.31,3.01,2.09,3.14C128.44,57.29,122.03,68.93,117.19,68.93z M147.79,68.93
		c-1.31,0-2.75-1.44-2.75-3.4c0-7.98,7.19-17,12.43-17.27c-0.26,0.78-0.52,1.83-0.52,2.62c0,1.44,1.31,3.01,2.09,3.14
		C159.04,57.29,152.63,68.93,147.79,68.93z M231.76,47.61c0.78,0,1.05,0.52,1.05,1.31c0,2.22-8.89,8.63-13.6,9.55
		C221.69,54.54,228.62,47.61,231.76,47.61z"/>
	<path class="st0" d="M313.77,41.59c-2.35,0-3.53,1.7-3.53,3.53c0,0.78-0.26,0.92-1.18,0.92c-1.7,0-4.71-1.57-7.32-1.57
		c-3.27,0-5.1,2.48-7.33,6.02c-1.57-4.97-2.88-10.07-3.14-15.3c9.55-4.05,23.81-12.69,23.81-25.64c0-4.84-2.88-7.98-9.55-7.98
		c-11.77,0-20.54,14-20.67,29.56c-9.42,4.05-22.89,11.77-22.89,25.24c0,10.59,7.19,17.13,15.3,17.13c8.24,0,12.43-4.45,15.7-9.42
		c3.4,5.49,7.33,9.16,13.08,9.16c6.93,0,8.63-2.75,8.63-5.1c0-1.83-1.18-3.01-2.88-3.01c-2.49,0-3.01,2.35-4.97,2.35
		c-3.4,0-6.93-3.27-9.94-9.29c1.05-2.35,3.53-7.85,5.89-7.85c2.88,0,4.84,1.57,7.72,1.57c3.66,0,7.06-2.62,7.06-6.67
		C317.56,43.16,316.12,41.59,313.77,41.59z M305.26,6.67c1.83,0,3.53,1.44,3.53,3.53c0,9.94-8.5,14.39-17.53,18.83
		C291.79,16.35,298.46,6.67,305.26,6.67z M278.32,67.49c-5.75,0-9.94-4.71-9.94-11.38c0-10.33,10.59-15.96,16.74-18.57
		c0.52,5.76,1.83,13.47,4.45,20.14C286.95,62.52,283.16,67.49,278.32,67.49z"/>
	<path class="st0" d="M398.65,88.55c2.49,0,8.24-2.88,8.24-5.23c0-0.92-0.39-1.18-1.57-1.18c-0.92,0-1.83,0.52-4.71,0.52
		c-4.32,0-10.46-6.28-15.3-13.87c-4.84-7.59-9.94-18.57-11.77-24.33c5.36-1.7,14.78-4.97,24.98-12.69
		c10.2-7.72,18.05-17.53,19.88-20.01c1.44-2.09,3.4-4.97,3.4-7.19c0-2.09-0.52-3.4-2.88-3.4c-2.22,0-3.14,1.44-5.23,4.84
		c-3.01,5.62-9.16,13.08-19.1,20.8c-6.54,5.1-15.3,8.89-20.4,11.12c5.23-10.86,9.68-22.1,9.68-26.94c0-5.62-4.19-9.42-8.89-9.42
		c-17.27,0-44.21,19.23-44.21,31.26c0,2.48,0.92,4.32,3.66,4.32s4.05-2.35,4.05-6.02c0-6.67,21.32-22.76,34.53-22.76
		c2.09,0,3.4,1.31,3.4,3.66c0,4.19-4.84,15.7-10.46,28.12c-3.27,7.32-12.29,25.77-12.29,31.26c0,2.09,1.44,3.66,3.4,3.66
		c3.27,0,4.05-2.35,4.05-4.58c0-2.75,5.62-15.83,7.19-19.75c3.01,7.19,6.15,14.52,11.25,22.37
		C385.83,82.79,393.42,88.55,398.65,88.55z"/>
	<path class="st0" d="M426.38,80.83c-0.65,0-1.57,0.13-2.22,0.26c0.26-3.92,0.78-8.63,1.96-25.51c0.26-4.05,1.18-6.93,1.83-8.63
		c0.39-0.92,0.52-1.7,0.52-2.48c0-2.09-1.57-2.35-2.75-2.35c-1.18,0-4.05,1.44-5.23,2.48c-0.65,0.52-2.62,3.92-4.58,6.67
		c-2.49,3.79-11.64,16.09-14.78,16.09c-0.65,0-0.79-0.52-0.79-1.31c0-1.18,3.53-11.77,6.15-15.83c1.57-2.49,2.62-3.92,2.62-5.1
		c0-1.44-1.18-2.75-3.4-2.75c-2.35,0-4.32,2.35-6.15,6.8c-1.7,3.92-5.75,15.43-5.75,19.1c0,3.79,2.35,5.76,4.97,5.76
		c7.06,0,17.79-14.26,21.06-19.23c0,1.96-1.44,17.13-2.49,27.08c-2.49,1.05-12.95,6.28-20.54,14.65
		c-9.16,9.94-12.95,20.93-12.95,27.08c0,5.89,4.45,9.42,9.42,9.42c16.48,0,27.47-27.47,30.08-46.69c0.92-0.26,2.35-0.39,2.88-0.39
		c3.53,0,6.02,1.44,6.02,2.62c0,1.57-0.39,2.35-0.39,3.4c0,1.83,0.92,3.14,3.27,3.14c2.88,0,4.19-2.75,4.19-5.23
		C439.32,83.71,432.65,80.83,426.38,80.83z M393.54,128.05c-1.96,0-3.66-1.83-3.66-4.05c0-4.71,3.01-14.13,10.2-21.97
		c6.8-7.59,14.39-12.69,16.87-14C415.39,101.63,405.32,128.05,393.54,128.05z"/>
	<path class="st0" d="M478.95,61.74c-1.18,0-3.14,1.57-4.97,3.01c-2.49,1.96-4.97,4.32-8.76,4.32c-2.49,0-3.66-2.09-3.66-3.66
		c0-0.92,0.52-1.83,2.22-2.22c8.63-1.96,19.62-9.68,19.62-16.48c0-2.88-3.01-4.97-5.75-4.97c-6.03,0-13.8,4.53-18.95,13.67
		c-4.9,5.82-12.94,13.01-17.54,13.01c-2.49,0-3.92-1.83-3.92-5.1c0-2.75,1.83-9.94,3.92-13.6c6.93-5.49,13.21-10.99,20.54-20.27
		c9.42-12.03,11.25-20.01,11.25-23.81c0-2.75-2.09-5.36-5.23-5.36c-7.46,0-13.34,6.41-21.19,19.75
		c-7.33,12.56-16.09,32.96-16.09,43.95c0,6.28,4.58,10.07,9.81,10.07c4.26,0,9.75-3.67,14.82-8.2c0.44,5.26,5.01,8.46,9.11,8.46
		c4.19,0,7.46-1.31,13.08-5.62c3.01-2.35,3.79-3.53,3.79-4.97C481.04,62.39,480.13,61.74,478.95,61.74z M451.49,22.89
		c6.54-11.64,12.29-16.22,13.86-16.22c0.92,0,1.31,0.39,1.31,1.18c0,2.75-2.62,8.63-9.55,17.79c-5.36,7.19-10.86,12.69-13.47,14.78
		C444.42,37.54,446.12,32.44,451.49,22.89z M475.94,47.61c0.78,0,1.05,0.52,1.05,1.31c0,2.22-8.89,8.63-13.6,9.55
		C465.87,54.54,472.8,47.61,475.94,47.61z"/>
</g>
</svg>
